<svg width="27" height="27" viewBox="0 0 27 27" fill="none" xmlns="http://www.w3.org/2000/svg">
<circle cx="13.5" cy="13.5" r="13.5" fill="#D42978"/>
<path d="M9.5 9.79961C9.5 9.41302 9.81341 9.09961 10.2 9.09961H19.3C19.6866 9.09961 20 9.41302 20 9.79961C20 10.1862 19.6866 10.4996 19.3 10.4996H10.2C9.81341 10.4996 9.5 10.1862 9.5 9.79961ZM19.3 13.2996H6.7C6.31341 13.2996 6 13.6131 6 13.9996C6 14.3862 6.31341 14.6996 6.7 14.6996H19.3C19.6866 14.6996 20 14.3862 20 13.9996C20 13.6131 19.6866 13.2996 19.3 13.2996ZM19.3 17.4996H13C12.6134 17.4996 12.3 17.813 12.3 18.1996C12.3 18.5862 12.6134 18.8996 13 18.8996H19.3C19.6866 18.8996 20 18.5862 20 18.1996C20 17.813 19.6866 17.4996 19.3 17.4996Z" fill="white"/>
</svg>